<?xml version="1.0" encoding="UTF-8"?>
<!--
  ════════════════════════════════════════════════════════════════════════════
  TITAN HELIX — Architecture (animated, 4K 3840×2160)  ·  layered / mesh edition
  ────────────────────────────────────────────────────────────────────────────
  Open in a BROWSER → animation plays (CSS + SMIL).  Open in INKSCAPE / any text
  editor → fully editable: every region is a labelled <g>; colours live in <defs>
  gradients; all text is real <text>. Export 4K PNG from Inkscape (3840×2160).

  Reading order:
    • PAYLOAD ORIGINS (top)  →  INGESTION  →  SPLUNK DATA PLANE
    • SPLUNK  →  AI AGENT MESH (centre, hub-and-spoke)
    • AI MESH  ⇅  MCP TOOL FABRIC (bottom bus)  ⇅  SPLUNK   ← MCP reaches back up
    • EXECUTIVE  →  EXPERIENCE & ACTION rail (right)
    • ACTION  →  autonomous CLOSED LOOP arc  →  back to ORIGINS
  Palette: cyan #38BDF8/#22D3EE · orange #FF6B35/#FB923C · indigo #818CF8 · green #34D399
  ════════════════════════════════════════════════════════════════════════════
-->
<svg xmlns="http://www.w3.org/2000/svg" xmlns:xlink="http://www.w3.org/1999/xlink"
     viewBox="0 0 3840 2160" width="3840" height="2160" font-family="Inter, 'Segoe UI', sans-serif">
<defs>
  <style>
    @import url('https://fonts.googleapis.com/css2?family=Inter:wght@400;500;600;700;800&amp;family=JetBrains+Mono:wght@400;500;600&amp;display=swap');
    .h1{font-weight:800;fill:#F8FAFC;letter-spacing:1px}
    .tag{font-weight:500;fill:#94A3B8;letter-spacing:6px}
    .plane-h{font-weight:700;letter-spacing:5px}
    .colh{font-weight:700;letter-spacing:4px}
    .tt{font-weight:700;fill:#F1F5F9}
    .st{font-weight:500;fill:#94A3B8}
    .mono{font-family:'JetBrains Mono',monospace;fill:#CBD5E1}
    .chip{font-family:'JetBrains Mono',monospace;font-weight:500}
    .role{font-weight:500;fill:#A5B4FC}
    .foot{font-weight:500;fill:#64748B;letter-spacing:1px}
    .title-grad{fill:url(#gTitle)}
    .focusC{animation:gpC 2.8s ease-in-out infinite}
    @keyframes gpC{0%,100%{filter:drop-shadow(0 0 6px rgba(56,189,248,.4))}50%{filter:drop-shadow(0 0 24px rgba(56,189,248,.9))}}
    .focusO{animation:gpO 2.6s ease-in-out infinite}
    @keyframes gpO{0%,100%{filter:drop-shadow(0 0 8px rgba(255,107,53,.5))}50%{filter:drop-shadow(0 0 32px rgba(255,107,53,1))}}
    .focusI{animation:gpI 3s ease-in-out infinite}
    @keyframes gpI{0%,100%{filter:drop-shadow(0 0 8px rgba(129,140,248,.5))}50%{filter:drop-shadow(0 0 30px rgba(129,140,248,.95))}}
    .spin{transform-origin:1875px 1300px;animation:rot 60s linear infinite}
    @keyframes rot{to{transform:rotate(360deg)}}
    .shim{animation:sh 6s linear infinite}@keyframes sh{to{stroke-dashoffset:-40}}
    .loop{stroke-dasharray:10 14;animation:lp 1.6s linear infinite}@keyframes lp{to{stroke-dashoffset:-48}}
    .pulseR{animation:pr 2.4s ease-in-out infinite}@keyframes pr{0%,100%{opacity:.35}50%{opacity:.9}}
  </style>

  <linearGradient id="bg" x1="0" y1="0" x2="0.5" y2="1"><stop offset="0" stop-color="#0F172A"/><stop offset="1" stop-color="#0A0E18"/></linearGradient>
  <radialGradient id="vig" cx="0.5" cy="0.5" r="0.7"><stop offset="0" stop-color="#1B2940" stop-opacity="0.5"/><stop offset="1" stop-color="#0A0E18" stop-opacity="0"/></radialGradient>
  <radialGradient id="meshGlow" cx="0.5" cy="0.5" r="0.5"><stop offset="0" stop-color="#4F46E5" stop-opacity="0.45"/><stop offset="1" stop-color="#4F46E5" stop-opacity="0"/></radialGradient>
  <linearGradient id="gTitle" x1="0" y1="0" x2="1" y2="0"><stop offset="0" stop-color="#38BDF8"/><stop offset="0.55" stop-color="#F8FAFC"/><stop offset="1" stop-color="#FB923C"/></linearGradient>
  <linearGradient id="tile" x1="0" y1="0" x2="0" y2="1"><stop offset="0" stop-color="#1E293B"/><stop offset="1" stop-color="#0E1626"/></linearGradient>
  <linearGradient id="tileI" x1="0" y1="0" x2="0" y2="1"><stop offset="0" stop-color="#1E2545"/><stop offset="1" stop-color="#10152A"/></linearGradient>
  <linearGradient id="tileO" x1="0" y1="0" x2="0" y2="1"><stop offset="0" stop-color="#2A1A12"/><stop offset="1" stop-color="#16100B"/></linearGradient>
  <linearGradient id="cyan" x1="0" y1="0" x2="1" y2="0"><stop offset="0" stop-color="#22D3EE"/><stop offset="1" stop-color="#3B82F6"/></linearGradient>
  <linearGradient id="orange" x1="0" y1="0" x2="1" y2="0"><stop offset="0" stop-color="#FB923C"/><stop offset="1" stop-color="#FF6B35"/></linearGradient>
  <linearGradient id="indigo" x1="0" y1="0" x2="1" y2="0"><stop offset="0" stop-color="#818CF8"/><stop offset="1" stop-color="#6366F1"/></linearGradient>
  <linearGradient id="mcpBar" x1="0" y1="0" x2="1" y2="0"><stop offset="0" stop-color="#1A1208"/><stop offset="0.5" stop-color="#241608"/><stop offset="1" stop-color="#1A1208"/></linearGradient>
  <radialGradient id="dC" cx="0.5" cy="0.5" r="0.5"><stop offset="0" stop-color="#E0FBFF"/><stop offset="0.4" stop-color="#38BDF8"/><stop offset="1" stop-color="#38BDF8" stop-opacity="0"/></radialGradient>
  <radialGradient id="dO" cx="0.5" cy="0.5" r="0.5"><stop offset="0" stop-color="#FFE7D6"/><stop offset="0.4" stop-color="#FF6B35"/><stop offset="1" stop-color="#FF6B35" stop-opacity="0"/></radialGradient>
  <radialGradient id="dG" cx="0.5" cy="0.5" r="0.5"><stop offset="0" stop-color="#D1FAE5"/><stop offset="0.4" stop-color="#34D399"/><stop offset="1" stop-color="#34D399" stop-opacity="0"/></radialGradient>
  <pattern id="grid" width="64" height="64" patternUnits="userSpaceOnUse"><path d="M64 0H0V64" fill="none" stroke="#1E293B" stroke-opacity="0.3" stroke-width="1"/></pattern>
  <filter id="soft" x="-60%" y="-60%" width="220%" height="220%"><feGaussianBlur stdDeviation="7"/></filter>
  <marker id="aC" viewBox="0 0 12 12" refX="9" refY="6" markerWidth="8" markerHeight="8" orient="auto-start-reverse"><path d="M1 1 11 6 1 11Z" fill="#38BDF8"/></marker>
  <marker id="aO" viewBox="0 0 12 12" refX="9" refY="6" markerWidth="8" markerHeight="8" orient="auto-start-reverse"><path d="M1 1 11 6 1 11Z" fill="#FF6B35"/></marker>
  <marker id="aG" viewBox="0 0 12 12" refX="9" refY="6" markerWidth="9" markerHeight="9" orient="auto-start-reverse"><path d="M1 1 11 6 1 11Z" fill="#34D399"/></marker>
  <marker id="aI" viewBox="0 0 12 12" refX="9" refY="6" markerWidth="7" markerHeight="7" orient="auto-start-reverse"><path d="M1 1 11 6 1 11Z" fill="#818CF8"/></marker>
</defs>

<rect width="3840" height="2160" fill="url(#bg)"/>
<rect width="3840" height="2160" fill="url(#grid)"/>
<rect width="3840" height="2160" fill="url(#vig)"/>

<!-- ════ TITLE ════ -->
<g>
  <circle cx="128" cy="120" r="32" fill="url(#orange)" filter="url(#soft)" opacity="0.9"/><circle cx="128" cy="120" r="28" fill="#0A0E18"/>
  <text x="128" y="137" text-anchor="middle" class="h1 title-grad" font-size="38">H</text>
  <text x="186" y="140" class="h1 title-grad" font-size="80">TITAN HELIX</text>
  <text x="190" y="198" class="tag" font-size="27">AUTONOMOUS&#160;&#160;AI&#160;&#160;OPERATIONAL&#160;&#160;INTELLIGENCE&#160;&#160;MESH</text>
  <line x1="192" y1="224" x2="1420" y2="224" stroke="url(#cyan)" stroke-width="3" stroke-dasharray="6 10" class="shim"/>
</g>

<!-- ════ LEFT RAIL · AWS FOUNDATION ════ -->
<g>
  <rect x="70" y="300" width="380" height="1480" rx="24" fill="#0C1322" fill-opacity="0.5" stroke="#334155" stroke-dasharray="2 12"/>
  <text x="260" y="356" text-anchor="middle" class="colh" font-size="25" fill="#7DD3FC">AWS FOUNDATION</text>
  <g class="mono" font-size="22">
    <g transform="translate(102,392)"><rect width="316" height="190" rx="16" fill="url(#tile)" stroke="#334155"/><rect x="24" y="-18" width="56" height="56" rx="12" fill="url(#cyan)"/><path d="M40 18 h24 M52 6 v24" transform="translate(-4,-2)" stroke="#06121f" stroke-width="4" stroke-linecap="round"/><text x="158" y="86" text-anchor="middle" class="tt" font-size="26">Amazon VPC</text><text x="158" y="120" text-anchor="middle" fill="#94A3B8">3 Availability Zones</text><text x="158" y="152" text-anchor="middle" fill="#64748B" font-size="20">private subnets · NAT</text></g>
    <g transform="translate(102,612)"><rect width="316" height="190" rx="16" fill="url(#tile)" stroke="#334155"/><rect x="24" y="-18" width="56" height="56" rx="12" fill="url(#cyan)"/><path d="M52 4 l16 8 v12 q0 14 -16 22 q-16 -8 -16 -22 V12Z" transform="translate(-4,0)" fill="none" stroke="#06121f" stroke-width="4"/><text x="158" y="86" text-anchor="middle" class="tt" font-size="26">IAM · KMS</text><text x="158" y="120" text-anchor="middle" fill="#94A3B8">least-privilege roles</text><text x="158" y="152" text-anchor="middle" fill="#64748B" font-size="20">encryption at rest/in-transit</text></g>
    <g transform="translate(102,832)"><rect width="316" height="190" rx="16" fill="url(#tile)" stroke="#334155"/><rect x="24" y="-18" width="56" height="56" rx="12" fill="url(#cyan)"/><path d="M40 38 v-16 l-8 0 12 -14 12 14 -8 0 v16" transform="translate(-4,-2)" fill="none" stroke="#06121f" stroke-width="3.5" stroke-linejoin="round"/><text x="158" y="86" text-anchor="middle" class="tt" font-size="26">EC2 Auto Scaling</text><text x="158" y="120" text-anchor="middle" fill="#94A3B8">Splunk + agent runtime</text><text x="158" y="152" text-anchor="middle" fill="#64748B" font-size="20">self-healing capacity</text></g>
    <g transform="translate(102,1052)"><rect width="316" height="190" rx="16" fill="url(#tile)" stroke="#334155"/><rect x="24" y="-18" width="56" height="56" rx="12" fill="url(#cyan)"/><path d="M34 24 h10 l6 -12 8 24 6 -12 h10" transform="translate(-4,-2)" fill="none" stroke="#06121f" stroke-width="3.5" stroke-linecap="round" stroke-linejoin="round"/><text x="158" y="86" text-anchor="middle" class="tt" font-size="26">CloudWatch</text><text x="158" y="120" text-anchor="middle" fill="#94A3B8">metrics · alarms</text><text x="158" y="152" text-anchor="middle" fill="#64748B" font-size="20">+ helix_audit governance</text></g>
    <g transform="translate(102,1272)"><rect width="316" height="190" rx="16" fill="url(#tile)" stroke="#334155"/><rect x="24" y="-18" width="56" height="56" rx="12" fill="url(#cyan)"/><circle cx="26" cy="8" r="9" transform="translate(-4,0)" fill="none" stroke="#06121f" stroke-width="3.5"/><text x="158" y="86" text-anchor="middle" class="tt" font-size="25">Synthetic Engine</text><text x="158" y="120" text-anchor="middle" fill="#94A3B8">ground-truth world</text><text x="158" y="152" text-anchor="middle" fill="#64748B" font-size="20">29 svc · 1,429 hosts</text></g>
  </g>
</g>

<!-- ════ RIGHT RAIL · EXPERIENCE & ACTION ════ -->
<g>
  <rect x="3390" y="300" width="380" height="1480" rx="24" fill="#0C1322" fill-opacity="0.5" stroke="#334155" stroke-dasharray="2 12"/>
  <text x="3580" y="356" text-anchor="middle" class="colh" font-size="24">EXPERIENCE &amp; ACTION</text>
  <g class="mono" font-size="22" text-anchor="middle">
    <g transform="translate(3422,392)"><rect width="316" height="184" rx="16" fill="url(#tile)" stroke="#38BDF8" stroke-opacity="0.5"/><g transform="translate(120,28)" stroke="#38BDF8" stroke-width="2.5"><line x1="14" y1="14" x2="56" y2="44" stroke-opacity=".6"/><line x1="56" y1="44" x2="30" y2="74" stroke-opacity=".6"/><line x1="56" y1="44" x2="80" y2="22" stroke-opacity=".6"/><circle cx="14" cy="14" r="8" fill="#0B0F19"/><circle cx="56" cy="44" r="8" fill="#0B0F19"/><circle cx="30" cy="74" r="8" fill="#FF6B35" stroke="#FF6B35"/><circle cx="80" cy="22" r="8" fill="#0B0F19"/></g><text x="158" y="138" class="tt" font-size="24">AI dependency graph</text><text x="158" y="166" fill="#64748B" font-size="19">inferred, not hand-drawn</text></g>
    <g transform="translate(3422,604)"><rect width="316" height="184" rx="16" fill="url(#tile)" stroke="#FF6B35" stroke-opacity="0.55"/><g transform="translate(158,62)"><circle r="42" fill="none" stroke="#FF6B35" stroke-opacity=".25" stroke-width="3"/><circle r="27" fill="none" stroke="#FF6B35" stroke-opacity=".5" stroke-width="3"/><circle r="12" fill="#FF6B35"/></g><text x="158" y="146" class="tt" font-size="24">Blast-radius forecast</text></g>
    <g transform="translate(3422,816)"><rect width="316" height="184" rx="16" fill="url(#tile)" stroke="#6EE7B7" stroke-opacity="0.5"/><g transform="translate(118,40)" stroke="#6EE7B7" stroke-width="3" fill="none" stroke-linecap="round"><path d="M4 14 l8 8 16 -18"/><path d="M4 44 l8 8 16 -18"/></g><text x="158" y="138" class="tt" font-size="24">Root cause + fix</text><text x="158" y="166" fill="#64748B" font-size="19">ranked remediation</text></g>
    <g transform="translate(3422,1028)"><rect width="316" height="184" rx="16" fill="#10182A" stroke="#7DD3FC" stroke-opacity="0.7" stroke-width="2"/><g transform="translate(126,38)"><rect width="64" height="46" rx="6" fill="none" stroke="#7DD3FC" stroke-width="2.5"/><line x1="0" y1="58" x2="64" y2="58" stroke="#7DD3FC" stroke-width="2.5"/></g><text x="158" y="146" class="tt" font-size="25">Command Center</text></g>
    <!-- autonomous action node -->
    <g transform="translate(3422,1252)" class="focusC"><rect width="316" height="200" rx="16" fill="#0E2419" stroke="#34D399" stroke-opacity="0.85" stroke-width="2.5"/><rect x="24" y="-18" width="56" height="56" rx="12" fill="url(#orange)"/><path d="M40 8 l-8 18 h10 l-4 14 16 -20 h-10 l4 -12Z" transform="translate(-4,0)" fill="#16100B"/><text x="158" y="80" class="tt" font-size="24" fill="#A7F3D0">Autonomous Action</text><text x="158" y="112" fill="#94A3B8" font-size="20">opens ServiceNow INC</text><text x="158" y="142" fill="#94A3B8" font-size="20">triggers hotfix deploy</text><text x="158" y="174" fill="#34D399" font-size="19">closes the loop ↺</text></g>
  </g>
</g>

<!-- ════ CENTRE · PAYLOAD ORIGINS (top band) ════ -->
<g>
  <text x="510" y="296" class="colh" font-size="24" fill="#7DD3FC">PAYLOAD ORIGINS</text>
  <text x="900" y="296" class="mono" font-size="21" fill="#64748B">· synthetic enterprise telemetry · ~23k events/s</text>
  <g class="mono" font-size="22" text-anchor="middle">
    <g transform="translate(510,318)"><rect width="404" height="118" rx="16" fill="url(#tile)" stroke="#334155"/><rect x="0" y="0" width="6" height="118" rx="3" fill="url(#cyan)"/><text x="208" y="52" class="tt" font-size="26">Metrics</text><text x="208" y="86" fill="#94A3B8" font-size="21">CPU · mem · net · k8s</text></g>
    <g transform="translate(950,318)"><rect width="404" height="118" rx="16" fill="url(#tile)" stroke="#334155"/><rect x="0" y="0" width="6" height="118" rx="3" fill="url(#cyan)"/><text x="208" y="52" class="tt" font-size="26">Logs</text><text x="208" y="86" fill="#94A3B8" font-size="21">app + error (JSON)</text></g>
    <g transform="translate(1390,318)"><rect width="404" height="118" rx="16" fill="url(#tile)" stroke="#334155"/><rect x="0" y="0" width="6" height="118" rx="3" fill="url(#cyan)"/><text x="208" y="52" class="tt" font-size="26">Traces</text><text x="208" y="86" fill="#94A3B8" font-size="21">W3C distributed spans</text></g>
    <g transform="translate(1830,318)"><rect width="404" height="118" rx="16" fill="url(#tile)" stroke="#334155"/><rect x="0" y="0" width="6" height="118" rx="3" fill="url(#cyan)"/><text x="208" y="52" class="tt" font-size="26">Incidents</text><text x="208" y="86" fill="#94A3B8" font-size="21">ServiceNow records</text></g>
    <g transform="translate(2270,318)"><rect width="404" height="118" rx="16" fill="url(#tile)" stroke="#334155"/><rect x="0" y="0" width="6" height="118" rx="3" fill="url(#cyan)"/><text x="208" y="52" class="tt" font-size="26">Deploys</text><text x="208" y="86" fill="#94A3B8" font-size="21">change events</text></g>
    <g transform="translate(2710,318)"><rect width="404" height="118" rx="16" fill="url(#tile)" stroke="#334155"/><rect x="0" y="0" width="6" height="118" rx="3" fill="url(#cyan)"/><text x="208" y="52" class="tt" font-size="26">Business</text><text x="208" y="86" fill="#94A3B8" font-size="21">revenue · KPIs</text></g>
  </g>
</g>

<!-- ════ CENTRE · INGESTION ════ -->
<g>
  <text x="510" y="540" class="colh" font-size="22" fill="#64748B">INGESTION · AWS EDGE</text>
  <g transform="translate(1300,560)"><rect width="420" height="150" rx="18" fill="url(#tile)" stroke="#38BDF8" stroke-opacity="0.5"/><rect x="30" y="-16" width="52" height="52" rx="12" fill="url(#cyan)"/><path d="M44 22 h22 m-22 -8 h22 m-22 16 h12" transform="translate(-4,-4)" stroke="#06121f" stroke-width="3.5" stroke-linecap="round"/><text x="232" y="66" text-anchor="middle" class="tt" font-size="27">Application LB</text><text x="232" y="100" text-anchor="middle" class="mono" font-size="21" fill="#94A3B8">TLS termination · HA</text><text x="232" y="130" text-anchor="middle" class="mono" font-size="20" fill="#64748B">multi-AZ</text></g>
  <g transform="translate(2010,560)"><rect width="420" height="150" rx="18" fill="url(#tile)" stroke="#38BDF8" stroke-opacity="0.6"/><rect x="30" y="-16" width="52" height="52" rx="12" fill="url(#cyan)"/><path d="M46 8 l16 14 -16 14" transform="translate(-6,-2)" fill="none" stroke="#06121f" stroke-width="4" stroke-linecap="round"/><text x="232" y="60" text-anchor="middle" class="tt" font-size="27">Splunk HEC</text><text x="232" y="94" text-anchor="middle" class="mono" font-size="21" fill="#7DD3FC">HTTP Event Collector · :8088</text><text x="232" y="124" text-anchor="middle" class="mono" font-size="20" fill="#64748B">HTTPS · token auth</text></g>
  <path d="M1720 635 L2010 635" fill="none" stroke="#1E3A5F" stroke-width="3" marker-end="url(#aC)"/>
</g>

<!-- ════ CENTRE · SPLUNK DATA PLANE ════ -->
<g>
  <rect x="700" y="760" width="2540" height="248" rx="22" fill="#0C1626" fill-opacity="0.7" stroke="#38BDF8" stroke-opacity="0.55" stroke-width="2.5"/>
  <text x="730" y="800" class="plane-h" font-size="25" fill="#7DD3FC">SPLUNK · DATA PLANE</text>
  <text x="980" y="800" class="mono" font-size="20" fill="#64748B">Amazon EC2 · index + SPL search</text>
  <g class="mono" text-anchor="middle">
    <g transform="translate(730,832)"><rect width="320" height="150" rx="14" fill="url(#tile)" stroke="#1E3A5F"/><text x="160" y="62" class="tt" font-size="24">Search Head</text><text x="160" y="96" fill="#94A3B8" font-size="20">SPL · REST API</text><text x="160" y="126" fill="#64748B" font-size="18">:8089</text></g>
    <g transform="translate(1074,832)"><rect width="320" height="150" rx="14" fill="url(#tile)" stroke="#1E3A5F"/><text x="160" y="62" class="tt" font-size="24">Indexer Cluster</text><text x="160" y="96" fill="#94A3B8" font-size="20">hot / warm buckets</text></g>
    <!-- index pills -->
    <g font-size="18" class="chip" fill="#93C5FD">
      <g transform="translate(1418,838)"><rect width="158" height="42" rx="9" fill="#0E1A2E" stroke="#1E3A5F"/><text x="79" y="28">helix_metrics</text></g>
      <g transform="translate(1584,838)"><rect width="158" height="42" rx="9" fill="#0E1A2E" stroke="#1E3A5F"/><text x="79" y="28">helix_traces</text></g>
      <g transform="translate(1750,838)"><rect width="158" height="42" rx="9" fill="#0E1A2E" stroke="#1E3A5F"/><text x="79" y="28">helix_logs</text></g>
      <g transform="translate(1418,888)"><rect width="158" height="42" rx="9" fill="#0E1A2E" stroke="#1E3A5F"/><text x="79" y="28">helix_incidents</text></g>
      <g transform="translate(1584,888)"><rect width="158" height="42" rx="9" fill="#0E1A2E" stroke="#1E3A5F"/><text x="79" y="28">helix_deploy</text></g>
      <g transform="translate(1750,888)"><rect width="158" height="42" rx="9" fill="#0E1A2E" stroke="#1E3A5F"/><text x="79" y="28">helix_business</text></g>
      <g transform="translate(1501,938)"><rect width="158" height="42" rx="9" fill="#0E1A2E" stroke="#1E3A5F"/><text x="79" y="28">helix_audit</text></g>
    </g>
    <g transform="translate(2900,832)"><rect width="320" height="150" rx="14" fill="url(#tile)" stroke="#1E3A5F"/><rect x="132" y="20" width="56" height="44" rx="8" fill="none" stroke="#38BDF8" stroke-width="2.5"/><text x="160" y="106" class="tt" font-size="23">Amazon S3</text><text x="160" y="134" fill="#64748B" font-size="18">SmartStore · historical</text></g>
  </g>
</g>

<!-- ════ CENTRE · AI AGENT MESH (hub & spoke) ════ -->
<g>
  <text x="1875" y="1055" text-anchor="middle" class="colh" font-size="26" fill="#A5B4FC">A I   A G E N T   M E S H</text>
  <text x="1875" y="1085" text-anchor="middle" class="mono" font-size="20" fill="#64748B">LangGraph orchestration · deterministic or Claude (LLM) reasoning</text>
  <circle cx="1875" cy="1300" r="300" fill="url(#meshGlow)"/>

  <!-- rotating dashed mesh halo -->
  <circle cx="1875" cy="1300" r="252" fill="none" stroke="#6366F1" stroke-opacity="0.35" stroke-width="2" stroke-dasharray="4 16" class="spin"/>

  <!-- spokes hub<->agents -->
  <g stroke="#6366F1" stroke-opacity="0.5" stroke-width="2.5" fill="none">
    <line x1="1875" y1="1300" x2="1520" y2="1130"/><line x1="1875" y1="1300" x2="2230" y2="1130"/>
    <line x1="1875" y1="1300" x2="1380" y2="1300"/><line x1="1875" y1="1300" x2="2370" y2="1300"/>
    <line x1="1875" y1="1300" x2="1520" y2="1470"/><line x1="1875" y1="1300" x2="2230" y2="1470"/>
  </g>
  <!-- mesh ring (agent<->agent) -->
  <g stroke="#818CF8" stroke-opacity="0.28" stroke-width="2" fill="none" stroke-dasharray="3 7">
    <path d="M1520 1130 L2230 1130 L2370 1300 L2230 1470 L1520 1470 L1380 1300 Z"/>
  </g>

  <!-- HUB -->
  <g class="focusI">
    <polygon points="1985,1300 1930,1395 1820,1395 1765,1300 1820,1205 1930,1205" fill="url(#tileI)" stroke="#818CF8" stroke-width="3"/>
    <text x="1875" y="1285" text-anchor="middle" class="tt" font-size="25" fill="#C7D2FE">Reasoning</text>
    <text x="1875" y="1318" text-anchor="middle" class="tt" font-size="25" fill="#C7D2FE">Orchestrator</text>
    <text x="1875" y="1352" text-anchor="middle" class="mono" font-size="18" fill="#818CF8">LangGraph</text>
  </g>

  <!-- agents -->
  <g class="mono" text-anchor="middle" font-size="20">
    <g transform="translate(1390,1088)"><rect width="260" height="84" rx="14" fill="url(#tileI)" stroke="#67E8F9" stroke-opacity="0.7" stroke-width="2"/><circle cx="34" cy="42" r="15" fill="none" stroke="#67E8F9" stroke-width="3"/><circle cx="34" cy="42" r="5" fill="#67E8F9"/><text x="150" y="40" class="tt" font-size="23">Observer</text><text x="150" y="66" class="role" font-size="18">detect anomalies</text></g>
    <g transform="translate(2100,1088)"><rect width="260" height="84" rx="14" fill="url(#tileI)" stroke="#FDBA74" stroke-opacity="0.75" stroke-width="2"/><path d="M24 56 l10 -12 8 7 12 -16" transform="translate(0,-2)" stroke="#FDBA74" stroke-width="3" fill="none" stroke-linecap="round"/><text x="150" y="40" class="tt" font-size="23">Prediction</text><text x="150" y="66" class="role" font-size="18">forecast blast radius</text></g>
    <g transform="translate(1250,1258)"><rect width="260" height="84" rx="14" fill="url(#tileI)" stroke="#C4B5FD" stroke-opacity="0.75" stroke-width="2"/><circle cx="34" cy="42" r="15" fill="none" stroke="#C4B5FD" stroke-width="3"/><path d="M34 32 v10 l7 5" stroke="#C4B5FD" stroke-width="3" fill="none"/><text x="150" y="40" class="tt" font-size="23">Memory</text><text x="150" y="66" class="role" font-size="18">recall incidents</text></g>
    <g transform="translate(2240,1258)"><rect width="260" height="84" rx="14" fill="url(#tileI)" stroke="#FCA5A5" stroke-opacity="0.75" stroke-width="2"/><path d="M28 44 l9 9 16 -18" transform="translate(0,-2)" stroke="#FCA5A5" stroke-width="4" fill="none" stroke-linecap="round" stroke-linejoin="round"/><text x="150" y="40" class="tt" font-size="23">Remediation</text><text x="150" y="66" class="role" font-size="18">rank the fix</text></g>
    <g transform="translate(1390,1428)"><rect width="260" height="84" rx="14" fill="url(#tileI)" stroke="#FCD34D" stroke-opacity="0.75" stroke-width="2"/><circle cx="28" cy="38" r="6" fill="#FCD34D"/><circle cx="44" cy="52" r="6" fill="#FCD34D"/><line x1="28" y1="38" x2="44" y2="52" stroke="#FCD34D" stroke-width="3"/><text x="150" y="40" class="tt" font-size="23">Correlation</text><text x="150" y="66" class="role" font-size="18">link symptoms</text></g>
    <g transform="translate(2100,1428)"><rect width="260" height="84" rx="14" fill="#11261C" stroke="#6EE7B7" stroke-opacity="0.9" stroke-width="2.5"/><path d="M26 36 h18 m-18 9 h18 m-18 9 h11" stroke="#6EE7B7" stroke-width="3" stroke-linecap="round"/><text x="150" y="40" class="tt" font-size="23" fill="#A7F3D0">Executive</text><text x="150" y="66" font-size="18" fill="#6EE7B7">issue verdict</text></g>
  </g>
</g>

<!-- ════ CENTRE · MCP TOOL FABRIC (bottom bus) ════ -->
<g class="focusO">
  <rect x="700" y="1620" width="2540" height="190" rx="22" fill="url(#mcpBar)" stroke="#FF6B35" stroke-opacity="0.85" stroke-width="3"/>
  <!-- left cap: server -->
  <g transform="translate(724,1648)"><rect width="190" height="134" rx="14" fill="#1A1208" stroke="#FB923C" stroke-opacity="0.6"/><text x="95" y="58" text-anchor="middle" font-size="26" font-weight="800" fill="#FDBA74">MCP</text><text x="95" y="92" text-anchor="middle" class="mono" font-size="19" fill="#9CA3AF">Server</text></g>
  <text x="1140" y="1666" class="plane-h" font-size="24" fill="#FDBA74">MODEL CONTEXT PROTOCOL · TOOL FABRIC</text>
  <text x="1140" y="1696" class="mono" font-size="19" fill="#94A3B8">the agents reach Splunk through standard, typed tool calls — no brittle glue</text>
  <!-- tool ports -->
  <g class="mono" font-size="18" text-anchor="middle" fill="#FDBA74">
    <g transform="translate(1140,1720)"><rect width="200" height="46" rx="10" fill="#241608" stroke="#5A3A1E"/><text x="100" y="30">search_spl()</text></g>
    <g transform="translate(1352,1720)"><rect width="200" height="46" rx="10" fill="#241608" stroke="#5A3A1E"/><text x="100" y="30">get_service()</text></g>
    <g transform="translate(1564,1720)"><rect width="210" height="46" rx="10" fill="#241608" stroke="#5A3A1E"/><text x="105" y="30">list_incidents()</text></g>
    <g transform="translate(1786,1720)"><rect width="200" height="46" rx="10" fill="#241608" stroke="#5A3A1E"/><text x="100" y="30">get_metrics()</text></g>
    <g transform="translate(1998,1720)"><rect width="200" height="46" rx="10" fill="#241608" stroke="#5A3A1E"/><text x="100" y="30">fetch_traces()</text></g>
    <g transform="translate(2210,1720)"><rect width="200" height="46" rx="10" fill="#241608" stroke="#5A3A1E"/><text x="100" y="30">get_deploys()</text></g>
    <g transform="translate(2422,1720)"><rect width="210" height="46" rx="10" fill="#241608" stroke="#5A3A1E"/><text x="105" y="30">blast_radius()</text></g>
  </g>
  <!-- right cap: client -->
  <g transform="translate(3026,1648)"><rect width="190" height="134" rx="14" fill="#1A1208" stroke="#FB923C" stroke-opacity="0.6"/><text x="95" y="58" text-anchor="middle" font-size="22" font-weight="800" fill="#FDBA74">Client</text><text x="95" y="92" text-anchor="middle" class="mono" font-size="17" fill="#9CA3AF">agent runtime</text></g>
</g>

<!-- ════ CONNECTORS ════ -->
<!-- sources -> ingestion (manifold converge to ALB) -->
<g fill="none" stroke="#1E3A5F" stroke-width="2.5">
  <path id="s1" d="M712 436 C 712 500 1510 500 1510 560"/>
  <path d="M1152 436 C 1152 500 1510 510 1510 560" opacity="0.6"/>
  <path d="M1592 436 C 1592 500 1510 520 1510 560" opacity="0.6"/>
  <path id="s2" d="M2032 436 C 2032 510 1510 520 1510 560"/>
  <path d="M2472 436 C 2472 510 1510 520 1510 560" opacity="0.6"/>
  <path d="M2912 436 C 2912 510 1510 520 1510 560" opacity="0.6"/>
</g>
<!-- HEC -> data plane -->
<path id="hec2sp" d="M2220 710 C 2220 740 1970 740 1970 760" fill="none" stroke="#1E3A5F" stroke-width="3" marker-end="url(#aC)"/>
<!-- data plane -> mesh hub (data up into reasoning) -->
<path id="sp2mesh" d="M1875 1008 L1875 1205" fill="none" stroke="#1E3A5F" stroke-width="3.5" marker-end="url(#aI)"/>
<text x="1905" y="1120" class="mono" font-size="19" fill="#7DD3FC">observed state</text>
<!-- mesh hub <-> MCP fabric (tool calls down, results up) -->
<path id="mesh2mcp" d="M1820 1395 C 1760 1500 1300 1520 1300 1620" fill="none" stroke="#5A3A1E" stroke-width="3" marker-end="url(#aO)"/>
<path id="mcp2mesh" d="M1500 1620 C 1500 1520 1900 1480 1930 1395" fill="none" stroke="#5A3A1E" stroke-width="3" marker-end="url(#aO)"/>
<text x="1360" y="1560" class="mono" font-size="18" fill="#FDBA74">tool call</text>
<text x="1820" y="1560" class="mono" font-size="18" fill="#FDBA74">result</text>
<!-- MCP fabric -> Splunk (the reach-back loop, left gutter) -->
<path id="mcp2sp" d="M724 1715 C 560 1715 560 884 700 884" fill="none" stroke="#FF6B35" stroke-opacity="0.7" stroke-width="3" stroke-dasharray="2 9" marker-end="url(#aO)"/>
<text x="556" y="1300" transform="rotate(-90 556 1300)" text-anchor="middle" class="mono" font-size="20" fill="#FDBA74">MCP ▸ SPL query &amp; fetch</text>
<!-- executive -> right rail outcomes -->
<path id="exec2out" d="M2360 1470 C 3000 1470 3000 1120 3390 1120" fill="none" stroke="#1E3A5F" stroke-width="3.5" marker-end="url(#aC)"/>
<text x="2760" y="1450" class="mono" font-size="19" fill="#7DD3FC">verdict + evidence</text>
<!-- MCP client up to mesh (right) -->
<path d="M3121 1648 C 3121 1500 2520 1470 2370 1342" fill="none" stroke="#5A3A1E" stroke-opacity="0.7" stroke-width="2.5" stroke-dasharray="2 9" marker-end="url(#aO)"/>

<!-- ════ AUTONOMOUS CLOSED LOOP (action -> back to origins) ════ -->
<path id="loop" d="M3580 1252 C 3580 250 3580 250 2700 250 C 2400 250 2100 250 1500 380"
      fill="none" stroke="#34D399" stroke-opacity="0.8" stroke-width="3.5" class="loop" marker-end="url(#aG)"/>
<g transform="translate(2360,214)">
  <rect width="640" height="74" rx="16" fill="#0E2419" stroke="#34D399" stroke-opacity="0.6"/>
  <text x="320" y="33" text-anchor="middle" font-size="23" font-weight="700" fill="#A7F3D0">↺ AUTONOMOUS CLOSED LOOP</text>
  <text x="320" y="60" text-anchor="middle" class="mono" font-size="19" fill="#6EE7B7">detect → reason → remediate → verify recovery in telemetry</text>
</g>

<!-- ════ FLOW PARTICLES ════ -->
<g>
  <circle r="8" fill="url(#dC)"><animateMotion dur="1.7s" repeatCount="indefinite"><mpath xlink:href="#s1"/></animateMotion></circle>
  <circle r="8" fill="url(#dC)"><animateMotion dur="1.7s" begin="-0.85s" repeatCount="indefinite"><mpath xlink:href="#s2"/></animateMotion></circle>
  <circle r="8" fill="url(#dC)"><animateMotion dur="1.5s" repeatCount="indefinite"><mpath xlink:href="#hec2sp"/></animateMotion></circle>
  <circle r="9" fill="url(#dC)"><animateMotion dur="1.4s" repeatCount="indefinite"><mpath xlink:href="#sp2mesh"/></animateMotion></circle>
  <circle r="9" fill="url(#dO)"><animateMotion dur="1.8s" repeatCount="indefinite"><mpath xlink:href="#mesh2mcp"/></animateMotion></circle>
  <circle r="9" fill="url(#dO)"><animateMotion dur="1.8s" begin="-0.9s" repeatCount="indefinite"><mpath xlink:href="#mcp2mesh"/></animateMotion></circle>
  <circle r="9" fill="url(#dO)"><animateMotion dur="2.6s" repeatCount="indefinite"><mpath xlink:href="#mcp2sp"/></animateMotion></circle>
  <circle r="9" fill="url(#dO)"><animateMotion dur="2.6s" begin="-1.3s" repeatCount="indefinite"><mpath xlink:href="#mcp2sp"/></animateMotion></circle>
  <circle r="9" fill="url(#dC)"><animateMotion dur="2.2s" repeatCount="indefinite"><mpath xlink:href="#exec2out"/></animateMotion></circle>
  <circle r="10" fill="url(#dG)"><animateMotion dur="4.5s" repeatCount="indefinite"><mpath xlink:href="#loop"/></animateMotion></circle>
  <circle r="10" fill="url(#dG)"><animateMotion dur="4.5s" begin="-2.25s" repeatCount="indefinite"><mpath xlink:href="#loop"/></animateMotion></circle>
</g>

<!-- ════ LEGEND / FOOTER ════ -->
<g transform="translate(470,1900)">
  <text x="0" y="0" font-size="32" font-weight="700" fill="#E2E8F0">“Every enterprise sits on a graph it can’t see.”</text>
  <text x="0" y="42" font-size="25" class="st">TITAN HELIX makes it visible — agents reason over Splunk through MCP, and close the loop autonomously.</text>
</g>
<g transform="translate(2640,1882)" class="mono" font-size="22">
  <circle cx="12" cy="-8" r="8" fill="url(#dC)"/><text x="32" y="0" fill="#94A3B8">telemetry &amp; SPL</text>
  <circle cx="12" cy="30" r="8" fill="url(#dO)"/><text x="32" y="38" fill="#94A3B8">MCP tool calls</text>
  <circle cx="12" cy="68" r="8" fill="url(#dG)"/><text x="32" y="76" fill="#94A3B8">autonomous loop</text>
  <circle cx="360" cy="-8" r="8" fill="#818CF8"/><text x="382" y="0" fill="#94A3B8">agent reasoning</text>
</g>
<text x="3760" y="2092" text-anchor="end" class="foot" font-size="22">TITAN HELIX · architecture · v2</text>
</svg>
